<mxfile host="app.diagrams.net" modified="2022-10-06T11:27:01.100Z" agent="5.0 (Windows NT 10.0; Win64; x64) AppleWebKit/537.36 (KHTML, like Gecko) Chrome/105.0.0.0 Safari/537.36" etag="_K89Vi06dkpuH7Y59Dcr" version="20.4.0" type="github">
  <diagram name="Page-1" id="e7e014a7-5840-1c2e-5031-d8a46d1fe8dd">
    <mxGraphModel dx="1422" dy="794" grid="1" gridSize="10" guides="1" tooltips="1" connect="1" arrows="1" fold="1" page="1" pageScale="1" pageWidth="1169" pageHeight="826" background="none" math="0" shadow="0">
      <root>
        <mxCell id="0" />
        <mxCell id="1" parent="0" />
        <mxCell id="FG3vpITnmda9D5UZUvgb-48" style="rounded=0;orthogonalLoop=1;jettySize=auto;html=1;entryX=0;entryY=0.5;entryDx=0;entryDy=0;endArrow=open;endFill=0;endSize=15;" edge="1" parent="1" source="FG3vpITnmda9D5UZUvgb-42" target="FG3vpITnmda9D5UZUvgb-41">
          <mxGeometry relative="1" as="geometry" />
        </mxCell>
        <mxCell id="FG3vpITnmda9D5UZUvgb-53" style="edgeStyle=none;rounded=0;orthogonalLoop=1;jettySize=auto;html=1;entryX=0;entryY=0.5;entryDx=0;entryDy=0;endArrow=open;endFill=0;endSize=15;" edge="1" parent="1" source="FG3vpITnmda9D5UZUvgb-42" target="FG3vpITnmda9D5UZUvgb-51">
          <mxGeometry relative="1" as="geometry" />
        </mxCell>
        <mxCell id="FG3vpITnmda9D5UZUvgb-42" value="продавец" style="shape=umlActor;verticalLabelPosition=bottom;verticalAlign=top;html=1;outlineConnect=0;" vertex="1" parent="1">
          <mxGeometry x="260" y="240" width="30" height="60" as="geometry" />
        </mxCell>
        <mxCell id="FG3vpITnmda9D5UZUvgb-43" value="Бухгалтерская система" style="shape=umlActor;verticalLabelPosition=bottom;verticalAlign=top;html=1;outlineConnect=0;" vertex="1" parent="1">
          <mxGeometry x="720" y="240" width="30" height="60" as="geometry" />
        </mxCell>
        <mxCell id="FG3vpITnmda9D5UZUvgb-45" value="" style="group" vertex="1" connectable="0" parent="1">
          <mxGeometry x="430" y="140" width="180" height="130" as="geometry" />
        </mxCell>
        <mxCell id="FG3vpITnmda9D5UZUvgb-41" value="" style="ellipse;whiteSpace=wrap;html=1;" vertex="1" parent="FG3vpITnmda9D5UZUvgb-45">
          <mxGeometry x="30" width="150" height="70" as="geometry" />
        </mxCell>
        <mxCell id="FG3vpITnmda9D5UZUvgb-47" value="Ввести новый заказ" style="text;html=1;strokeColor=none;fillColor=none;align=center;verticalAlign=middle;whiteSpace=wrap;rounded=0;" vertex="1" parent="FG3vpITnmda9D5UZUvgb-45">
          <mxGeometry x="30" y="70" width="140" height="30" as="geometry" />
        </mxCell>
        <mxCell id="FG3vpITnmda9D5UZUvgb-49" style="rounded=0;orthogonalLoop=1;jettySize=auto;html=1;entryX=0.5;entryY=0;entryDx=0;entryDy=0;entryPerimeter=0;endArrow=open;endFill=0;endSize=15;" edge="1" parent="1" source="FG3vpITnmda9D5UZUvgb-41" target="FG3vpITnmda9D5UZUvgb-43">
          <mxGeometry relative="1" as="geometry" />
        </mxCell>
        <mxCell id="FG3vpITnmda9D5UZUvgb-50" value="" style="group" vertex="1" connectable="0" parent="1">
          <mxGeometry x="420" y="320" width="180" height="130" as="geometry" />
        </mxCell>
        <mxCell id="FG3vpITnmda9D5UZUvgb-51" value="" style="ellipse;whiteSpace=wrap;html=1;" vertex="1" parent="FG3vpITnmda9D5UZUvgb-50">
          <mxGeometry x="30" width="150" height="70" as="geometry" />
        </mxCell>
        <mxCell id="FG3vpITnmda9D5UZUvgb-52" value="Изменить существующий заказ" style="text;html=1;strokeColor=none;fillColor=none;align=center;verticalAlign=middle;whiteSpace=wrap;rounded=0;" vertex="1" parent="FG3vpITnmda9D5UZUvgb-50">
          <mxGeometry x="30" y="70" width="140" height="30" as="geometry" />
        </mxCell>
        <mxCell id="FG3vpITnmda9D5UZUvgb-58" style="edgeStyle=none;rounded=0;orthogonalLoop=1;jettySize=auto;html=1;entryX=0;entryY=0.5;entryDx=0;entryDy=0;endArrow=open;endFill=0;endSize=15;" edge="1" parent="1" source="FG3vpITnmda9D5UZUvgb-54" target="FG3vpITnmda9D5UZUvgb-56">
          <mxGeometry relative="1" as="geometry" />
        </mxCell>
        <mxCell id="FG3vpITnmda9D5UZUvgb-62" style="edgeStyle=none;rounded=0;orthogonalLoop=1;jettySize=auto;html=1;entryX=0;entryY=0.5;entryDx=0;entryDy=0;endArrow=open;endFill=0;endSize=15;" edge="1" parent="1" source="FG3vpITnmda9D5UZUvgb-54" target="FG3vpITnmda9D5UZUvgb-60">
          <mxGeometry relative="1" as="geometry" />
        </mxCell>
        <mxCell id="FG3vpITnmda9D5UZUvgb-54" value="управляющий магазином" style="shape=umlActor;verticalLabelPosition=bottom;verticalAlign=top;html=1;outlineConnect=0;" vertex="1" parent="1">
          <mxGeometry x="260" y="440" width="30" height="60" as="geometry" />
        </mxCell>
        <mxCell id="FG3vpITnmda9D5UZUvgb-55" value="" style="group" vertex="1" connectable="0" parent="1">
          <mxGeometry x="405" y="470" width="180" height="130" as="geometry" />
        </mxCell>
        <mxCell id="FG3vpITnmda9D5UZUvgb-56" value="" style="ellipse;whiteSpace=wrap;html=1;" vertex="1" parent="FG3vpITnmda9D5UZUvgb-55">
          <mxGeometry x="30" width="150" height="70" as="geometry" />
        </mxCell>
        <mxCell id="FG3vpITnmda9D5UZUvgb-57" value="Напечатать инвентарную опись" style="text;html=1;strokeColor=none;fillColor=none;align=center;verticalAlign=middle;whiteSpace=wrap;rounded=0;" vertex="1" parent="FG3vpITnmda9D5UZUvgb-55">
          <mxGeometry x="30" y="70" width="140" height="30" as="geometry" />
        </mxCell>
        <mxCell id="FG3vpITnmda9D5UZUvgb-59" value="" style="group" vertex="1" connectable="0" parent="1">
          <mxGeometry x="405" y="580" width="180" height="130" as="geometry" />
        </mxCell>
        <mxCell id="FG3vpITnmda9D5UZUvgb-60" value="" style="ellipse;whiteSpace=wrap;html=1;" vertex="1" parent="FG3vpITnmda9D5UZUvgb-59">
          <mxGeometry x="30" width="150" height="70" as="geometry" />
        </mxCell>
        <mxCell id="FG3vpITnmda9D5UZUvgb-61" value="Обновить инвентарную опись" style="text;html=1;strokeColor=none;fillColor=none;align=center;verticalAlign=middle;whiteSpace=wrap;rounded=0;" vertex="1" parent="FG3vpITnmda9D5UZUvgb-59">
          <mxGeometry x="30" y="70" width="140" height="30" as="geometry" />
        </mxCell>
        <mxCell id="FG3vpITnmda9D5UZUvgb-71" style="edgeStyle=none;rounded=0;orthogonalLoop=1;jettySize=auto;html=1;entryX=0;entryY=0.5;entryDx=0;entryDy=0;endArrow=open;endFill=0;endSize=15;" edge="1" parent="1" source="FG3vpITnmda9D5UZUvgb-63" target="FG3vpITnmda9D5UZUvgb-65">
          <mxGeometry relative="1" as="geometry" />
        </mxCell>
        <mxCell id="FG3vpITnmda9D5UZUvgb-75" style="edgeStyle=none;rounded=0;orthogonalLoop=1;jettySize=auto;html=1;entryX=0;entryY=0.5;entryDx=0;entryDy=0;endArrow=open;endFill=0;endSize=15;" edge="1" parent="1" source="FG3vpITnmda9D5UZUvgb-63" target="FG3vpITnmda9D5UZUvgb-73">
          <mxGeometry relative="1" as="geometry" />
        </mxCell>
        <mxCell id="FG3vpITnmda9D5UZUvgb-63" value="Клерк в магазине" style="shape=umlActor;verticalLabelPosition=bottom;verticalAlign=top;html=1;outlineConnect=0;" vertex="1" parent="1">
          <mxGeometry x="260" y="690" width="30" height="60" as="geometry" />
        </mxCell>
        <mxCell id="FG3vpITnmda9D5UZUvgb-64" value="" style="group" vertex="1" connectable="0" parent="1">
          <mxGeometry x="400" y="696" width="180" height="130" as="geometry" />
        </mxCell>
        <mxCell id="FG3vpITnmda9D5UZUvgb-65" value="" style="ellipse;whiteSpace=wrap;html=1;" vertex="1" parent="FG3vpITnmda9D5UZUvgb-64">
          <mxGeometry x="30" width="150" height="70" as="geometry" />
        </mxCell>
        <mxCell id="FG3vpITnmda9D5UZUvgb-66" value="Оформить заказ" style="text;html=1;strokeColor=none;fillColor=none;align=center;verticalAlign=middle;whiteSpace=wrap;rounded=0;" vertex="1" parent="FG3vpITnmda9D5UZUvgb-64">
          <mxGeometry x="30" y="70" width="140" height="30" as="geometry" />
        </mxCell>
        <mxCell id="FG3vpITnmda9D5UZUvgb-67" value="" style="group" vertex="1" connectable="0" parent="1">
          <mxGeometry x="690" y="640" width="180" height="130" as="geometry" />
        </mxCell>
        <mxCell id="FG3vpITnmda9D5UZUvgb-68" value="" style="ellipse;whiteSpace=wrap;html=1;" vertex="1" parent="FG3vpITnmda9D5UZUvgb-67">
          <mxGeometry x="30" width="150" height="70" as="geometry" />
        </mxCell>
        <mxCell id="FG3vpITnmda9D5UZUvgb-69" value="Отклонить заказ" style="text;html=1;strokeColor=none;fillColor=none;align=center;verticalAlign=middle;whiteSpace=wrap;rounded=0;" vertex="1" parent="FG3vpITnmda9D5UZUvgb-67">
          <mxGeometry x="30" y="70" width="140" height="30" as="geometry" />
        </mxCell>
        <mxCell id="FG3vpITnmda9D5UZUvgb-70" style="edgeStyle=none;rounded=0;orthogonalLoop=1;jettySize=auto;html=1;exitX=0;exitY=0.5;exitDx=0;exitDy=0;endArrow=block;endFill=0;endSize=25;" edge="1" parent="1" source="FG3vpITnmda9D5UZUvgb-68" target="FG3vpITnmda9D5UZUvgb-65">
          <mxGeometry relative="1" as="geometry" />
        </mxCell>
        <mxCell id="FG3vpITnmda9D5UZUvgb-72" value="" style="group" vertex="1" connectable="0" parent="1">
          <mxGeometry x="405" y="860" width="180" height="130" as="geometry" />
        </mxCell>
        <mxCell id="FG3vpITnmda9D5UZUvgb-73" value="" style="ellipse;whiteSpace=wrap;html=1;" vertex="1" parent="FG3vpITnmda9D5UZUvgb-72">
          <mxGeometry x="30" width="150" height="70" as="geometry" />
        </mxCell>
        <mxCell id="FG3vpITnmda9D5UZUvgb-74" value="Выполнить поставку заказа" style="text;html=1;strokeColor=none;fillColor=none;align=center;verticalAlign=middle;whiteSpace=wrap;rounded=0;" vertex="1" parent="FG3vpITnmda9D5UZUvgb-72">
          <mxGeometry x="30" y="70" width="140" height="30" as="geometry" />
        </mxCell>
        <mxCell id="FG3vpITnmda9D5UZUvgb-76" value="&amp;lt;&amp;lt;extends&amp;gt;&amp;gt;" style="text;html=1;strokeColor=none;fillColor=none;align=center;verticalAlign=middle;whiteSpace=wrap;rounded=0;fontColor=#7D7D7D;" vertex="1" parent="1">
          <mxGeometry x="620" y="640" width="80" height="30" as="geometry" />
        </mxCell>
      </root>
    </mxGraphModel>
  </diagram>
</mxfile>
